HIERARCHY
ROOT Hips
{
  OFFSET 53.1736 83.8025 3.25831
  CHANNELS 6 Xposition Yposition Zposition Zrotation Xrotation Yrotation
  JOINT spine
  {
    OFFSET 0 5.95438 0.342407
    CHANNELS 3 Zrotation Xrotation Yrotation
    JOINT spine1
    {
      OFFSET 0 8.85602 0
      CHANNELS 3 Zrotation Xrotation Yrotation
      JOINT spine2
      {
        OFFSET 0 8.48567 0
        CHANNELS 3 Zrotation Xrotation Yrotation
        JOINT Neck
        {
          OFFSET 0 21.7863 1.0387
          CHANNELS 3 Zrotation Xrotation Yrotation
          JOINT Head
          {
            OFFSET 0 6.5822 0
            CHANNELS 3 Zrotation Xrotation Yrotation
            End Site
            {
              OFFSET 0 15.9326 -5.25436
            }
          }
        }
        JOINT RightShoulder
        {
          OFFSET -3.57307 9.16386 -0.497525
          CHANNELS 3 Zrotation Xrotation Yrotation
          JOINT RightArm
          {
            OFFSET 0 12.0192 0
            CHANNELS 3 Zrotation Xrotation Yrotation
            JOINT RightArmRoll
            {
              OFFSET 0 6.06755 0
              CHANNELS 3 Zrotation Xrotation Yrotation
              JOINT RightForeArm
              {
                OFFSET 0 17.6726 0
                CHANNELS 3 Zrotation Xrotation Yrotation
                JOINT RightForeArmRoll
                {
                  OFFSET 0 6.80872 0
                  CHANNELS 3 Zrotation Xrotation Yrotation
                  JOINT RightHand
                  {
                    OFFSET 0 13.6636 0
                    CHANNELS 3 Zrotation Xrotation Yrotation
                    End Site
                    {
                      OFFSET 0 0 0
                    }
                  }
                }
              }
            }
          }
        }
        JOINT LeftShoulder
        {
          OFFSET 3.57307 9.16386 -0.497525
          CHANNELS 3 Zrotation Xrotation Yrotation
          JOINT LeftArm
          {
            OFFSET 0 12.0192 0
            CHANNELS 3 Zrotation Xrotation Yrotation
            JOINT LeftArmRoll
            {
              OFFSET 0 6.06755 0
              CHANNELS 3 Zrotation Xrotation Yrotation
              JOINT LeftForeArm
              {
                OFFSET 0 17.6726 0
                CHANNELS 3 Zrotation Xrotation Yrotation
                JOINT LeftForeArmRoll
                {
                  OFFSET 0 6.80872 0
                  CHANNELS 3 Zrotation Xrotation Yrotation
                  JOINT LeftHand
                  {
                    OFFSET 0 13.6636 0
                    CHANNELS 3 Zrotation Xrotation Yrotation
                    End Site
                    {
                      OFFSET 0 0 0
                    }
                  }
                }
              }
            }
          }
        }
      }
    }
  }
  JOINT RightUpLeg
  {
    OFFSET -5.27774 -0.967797 -0.811858
    CHANNELS 3 Zrotation Xrotation Yrotation
    JOINT RightUpLegRoll
    {
      OFFSET 0 16.0214 0
      CHANNELS 3 Zrotation Xrotation Yrotation
      JOINT RightLeg
      {
        OFFSET 0 -19.8401 0
        CHANNELS 3 Zrotation Xrotation Yrotation
        JOINT RightLegRoll
        {
          OFFSET 0 19.905 0
          CHANNELS 3 Zrotation Xrotation Yrotation
          JOINT RightFoot
          {
            OFFSET 0 16.5675 0
            CHANNELS 3 Zrotation Xrotation Yrotation
            JOINT RightToeBase
            {
              OFFSET 0 13.8496 0
              CHANNELS 3 Zrotation Xrotation Yrotation
              End Site
              {
                OFFSET 0.00587034 6.70728 -0.773117
              }
            }
          }
        }
      }
    }
  }
  JOINT LeftUpLeg
  {
    OFFSET 5.27774 -0.967797 -0.811858
    CHANNELS 3 Zrotation Xrotation Yrotation
    JOINT LeftUpLegRoll
    {
      OFFSET 0 16.0215 0
      CHANNELS 3 Zrotation Xrotation Yrotation
      JOINT LeftLeg
      {
        OFFSET 0 19.84 0
        CHANNELS 3 Zrotation Xrotation Yrotation
        JOINT LeftLegRoll
        {
          OFFSET 0 20.089 0
          CHANNELS 3 Zrotation Xrotation Yrotation
          JOINT LeftFoot
          {
            OFFSET 0 16.3835 0
            CHANNELS 3 Zrotation Xrotation Yrotation
            JOINT LeftToeBase
            {
              OFFSET 0 13.8496 0
              CHANNELS 3 Zrotation Xrotation Yrotation
              End Site
              {
                OFFSET -0.0263083 6.70728 -0.773117
              }
            }
          }
        }
      }
    }
  }
}
MOTION
Frames: 4
Frame Time: 0.00208333
51.9851 84.198 2.40226 4.18661 -11.4097 0.822481 -0.331838 1.04856 0.0444023 -0.689485 6.08671 0.134421 -0.692519 7.73174 0.145388 -10.6954 28.2902 3.66921 3.14207 21.9517 -1.64431 60.6376 -3.50682 -2.26022 122.918 21.3419 -24.5094 6.3271e-007 3.86561e-007 -1.8299e-006 -3.63989 -0.0271028 -1.9925 -1.10423e-005 4.83574e-007 -3.01161 8.03008 -4.95137 0.697621 -58.7593 -6.22543 3.81831 -132.181 20.8557 32.7792 -1.33328e-005 1.05869e-006 9.83134e-007 3.64056 -0.026705 1.99242 4.79161e-006 -8.34693e-007 3.0116 -8.0301 -4.95139 -0.697634 172.352 -1.28765 7.6912 180 7.01538e-015 178.883 175.837 14.3622 -179.922 -9.134e-006 1.6893e-006 0.213891 -20.381 69.964 21.3107 8.13602 25.2327 -3.48753 174.953 -5.85468 2.57218 4.54188e-006 -4.6773e-006 -1.13496 -1.98018 -8.06924 0.0918499 3.4226e-006 5.51736e-006 -0.0690005 18.2956 67.4946 -19.1069 -8.12782 25.2331 3.48404 
51.9775 84.1971 2.38493 4.18744 -11.3611 0.825602 -0.33138 1.0483 0.0443924 -0.687733 6.08711 0.134239 -0.690765 7.73214 0.145154 -10.7441 28.3199 3.68708 3.17296 21.9314 -1.65456 60.6239 -3.49655 -2.25287 122.921 21.3137 -24.5036 6.3271e-007 3.86561e-007 -1.8299e-006 -3.63989 -0.0271028 -1.9925 -1.10423e-005 4.83574e-007 -3.01161 8.03008 -4.95137 0.697621 -58.7708 -6.2213 3.81628 -132.164 20.8619 32.7632 -1.33328e-005 1.05869e-006 9.83134e-007 3.64056 -0.026705 1.99242 4.79161e-006 -8.34693e-007 3.0116 -8.0301 -4.95139 -0.697634 172.355 -1.23051 7.68048 180 7.01538e-015 178.884 175.843 14.3635 -179.923 -9.134e-006 1.6893e-006 0.213891 -20.3875 69.9703 21.3176 8.13602 25.2327 -3.48753 174.95 -5.79778 2.58411 4.54188e-006 -4.6773e-006 -1.13427 -1.97631 -8.07057 0.0923487 3.4226e-006 5.51736e-006 -0.0689835 18.2982 67.4979 -19.1097 -8.12782 25.2331 3.48404 
51.9749 84.1969 2.37431 4.18823 -11.3125 0.828676 -0.330958 1.04798 0.044383 -0.686057 6.08741 0.134063 -0.689086 7.73244 0.144928 -10.7933 28.3507 3.7051 3.20462 21.9096 -1.66502 60.6104 -3.48605 -2.2454 122.925 21.286 -24.4982 6.3271e-007 3.86561e-007 -1.8299e-006 -3.63989 -0.0271028 -1.9925 -1.10423e-005 4.83574e-007 -3.01161 8.03008 -4.95137 0.697621 -58.7822 -6.21704 3.81417 -132.146 20.8684 32.7474 -1.33328e-005 1.05869e-006 9.83134e-007 3.64056 -0.026705 1.99242 4.79161e-006 -8.34693e-007 3.0116 -8.0301 -4.95139 -0.697634 172.359 -1.17334 7.66971 180 7.01538e-015 178.885 175.849 14.3648 -179.924 -9.134e-006 1.6893e-006 0.213891 -20.394 69.9767 21.3246 8.13602 25.2327 -3.48753 174.948 -5.741 2.59607 4.54188e-006 -4.6773e-006 -1.13358 -1.97241 -8.07162 0.0928607 3.4226e-006 5.51736e-006 -0.0689581 18.3008 67.5012 -19.1125 -8.12782 25.2331 3.48404 
51.9904 84.1912 2.35456 4.189 -11.2639 0.831716 -0.330562 1.04761 0.0443737 -0.684434 6.08765 0.133893 -0.687461 7.73268 0.144707 -10.8428 28.3823 3.72322 3.23683 21.8869 -1.67564 60.5969 -3.4754 -2.23784 122.928 21.2585 -24.4932 6.3271e-007 3.86561e-007 -1.8299e-006 -3.63989 -0.0271028 -1.9925 -1.10423e-005 4.83574e-007 -3.01161 8.03008 -4.95137 0.697621 -58.7937 -6.21269 3.81201 -132.129 20.8751 32.7318 -1.33328e-005 1.05869e-006 9.83134e-007 3.64056 -0.026705 1.99242 4.79161e-006 -8.34693e-007 3.0116 -8.0301 -4.95139 -0.697634 172.363 -1.11616 7.6589 180 7.01538e-015 178.886 175.855 14.3661 -179.925 -9.134e-006 1.6893e-006 0.213891 -20.4005 69.9831 21.3315 8.13602 25.2327 -3.48753 174.945 -5.68429 2.60806 4.54188e-006 -4.6773e-006 -1.13291 -1.96848 -8.07248 0.0933821 3.4226e-006 5.51736e-006 -0.068927 18.3034 67.5044 -19.1153 -8.12782 25.2331 3.48404 
